<svg xmlns="http://www.w3.org/2000/svg" viewBox="0 0 512 512" role="img" aria-label="Cafesito logo">
  <defs>
    <radialGradient id="bg" cx="50%" cy="44%" r="72%">
      <stop offset="0%" stop-color="#7a563c" />
      <stop offset="100%" stop-color="#6a4a34" />
    </radialGradient>
  </defs>

  <rect width="512" height="512" fill="url(#bg)" />

  <path
    d="M146 245h214v18c0 58-47 105-105 105h-68c-53-16-91-64-91-123z"
    fill="#ffffff"
  />

  <path
    d="M358 263h24c27 0 49 22 49 49s-22 49-49 49h-10"
    fill="none"
    stroke="#ffffff"
    stroke-width="18"
    stroke-linecap="round"
    stroke-linejoin="round"
  />

  <path
    d="M228 214c-13-12-22-22-22-35 0-15 11-26 26-26 10 0 18 4 24 12 6-8 14-12 24-12 15 0 26 11 26 26 0 13-9 23-22 35l-28 25z"
    fill="none"
    stroke="#ffffff"
    stroke-width="10"
    stroke-linecap="round"
    stroke-linejoin="round"
  />
</svg>